<svg id="Layer_6" enable-background="new 0 0 64 64" height="512" viewBox="0 0 64 64" width="512" xmlns="http://www.w3.org/2000/svg"><g><g><g><path d="m62 17.91c0 1.15-.94 2.09-2.09 2.09h-1.91v20h-14-6-6v-20h-1.91c-.44 0-.85-.14-1.18-.37-.13-.9-.39-1.76-.77-2.55l.03-.01c.12-.26.28-.49.49-.69l14.61-13.7c.47-.44 1.09-.68 1.73-.68s1.26.24 1.73.68l14.61 13.7c.42.4.66.95.66 1.53z" fill="#a0d468"/></g><g><path d="m25.07 25h-.07v-.19c0-1.03-.78-1.89-1.8-1.99l-3.22-.32c-1.65-.16-3.06-1.04-3.96-2.3-1.23.25-2.33.84-3.2 1.68-.88.83-1.52 1.9-1.82 3.12h-1c-.8 0-1.52.31-2.05.81l-.68-2.75c-.18-.7-.27-1.43-.27-2.16 0-4.91 3.99-8.9 8.9-8.9h4.2c2.46 0 4.68 1 6.29 2.61l1.75 2.47c.38.79.64 1.65.77 2.55.06.42.09.84.09 1.27 0 .73-.09 1.46-.27 2.16l-.67 2.7c-.53-.47-1.22-.76-1.99-.76z" fill="#656d78"/></g><g><path d="m19 50 2 12h-6l2-12z" fill="#fcd770"/></g><g><path d="m21.08 45.85-2.08 4.15h-2l-2.08-4.15 3.08-1.85z" fill="#ffc729"/></g><g><path d="m8 56h-6v-5.85c0-3.22 1.61-6.22 4.28-8.01 1.13-.75 2.41-1.26 3.76-1.48l1.1-.18 1.86 6.52 1.92-1.15 2.08 4.15-2 12h-7z" fill="#4fc1e9"/></g><g><path d="m28 60c0 1.1.9 2 2 2h-9l-2-12 2.08-4.15 1.92 1.15 1.86-6.52 1.1.18c1.35.22 2.63.73 3.76 1.48 1.46.98 2.6 2.32 3.34 3.86h-3.06c-1.1 0-2 .9-2 2z" fill="#4fc1e9"/></g><g><path d="m54 48v12c0 1.1-.9 2-2 2h-21-1c-1.1 0-2-.9-2-2v-12c0 3.31 2.69 6 6 6h4v2h6v-2h4c3.31 0 6-2.69 6-6z" fill="#d3a06c"/></g><g><path d="m44 54v2h-6v-2-2h6z" fill="#fcd770"/></g><g><path d="m34 46h14 4c1.1 0 2 .9 2 2 0 3.31-2.69 6-6 6h-4v-2h-6v2h-4c-3.31 0-6-2.69-6-6 0-1.1.9-2 2-2h3.06z" fill="#cf9e76"/></g><g><path d="m24.86 40.48-1.86 6.52-1.92-1.15-3.08-1.85 4-4z" fill="#3bafda"/></g><g><path d="m18 44-3.08 1.85-1.92 1.15-1.86-6.52 2.86-.48z" fill="#3bafda"/></g><g><path d="m2 56h6v6h-6z" fill="#f0d0b4"/></g><g><path d="m21.01 36.32.99 3.68-4 4-4-4 .99-3.68c.91.44 1.93.68 3.01.68s2.1-.24 3.01-.68z" fill="#f0d0b4"/></g><g><path d="m28.06 25.76c.62.54 1.01 1.35 1.01 2.24 0 .83-.33 1.58-.88 2.12-.54.54-1.29.88-2.12.88h-1.07l-.08-.01c.06-.32.08-.65.08-.99v-5h.07 1c.77 0 1.46.29 1.99.76z" fill="#f0d0b4"/></g><g><path d="m25 25v5c0 .34-.02.67-.08.99-.32 2.36-1.83 4.34-3.91 5.33-.91.44-1.93.68-3.01.68s-2.1-.24-3.01-.68c-.72-.34-1.38-.81-1.94-1.37-1.05-1.05-1.76-2.41-1.97-3.95-.06-.33-.08-.66-.08-1v-5c.3-1.22.94-2.29 1.82-3.12.87-.84 1.97-1.43 3.2-1.68.9 1.26 2.31 2.14 3.96 2.3l3.22.32c1.02.1 1.8.96 1.8 1.99z" fill="#f0d0b4"/></g><g><path d="m11 30c0 .34.02.67.08 1h-.01-1.07c-.83 0-1.58-.34-2.12-.88s-.88-1.29-.88-2.12c0-.86.36-1.64.95-2.19.53-.5 1.25-.81 2.05-.81h1z" fill="#f0d0b4"/></g></g><g><path d="m49 22.905c0-1.84-1.284-3.378-3-3.789v-2.116h-2v2.117c-1.716.411-3 1.948-3 3.789 0 1.684 1.073 3.173 2.671 3.705l2.025.676c.781.26 1.304.986 1.304 1.808 0 1.051-.854 1.905-1.905 1.905h-.189c-1.052 0-1.906-.854-1.906-1.905v-1.095h-2v1.095c0 1.84 1.284 3.378 3 3.789v2.116h2v-2.117c1.716-.411 3-1.948 3-3.789 0-1.684-1.073-3.173-2.671-3.705l-2.025-.676c-.781-.26-1.304-.986-1.304-1.808 0-1.051.854-1.905 1.905-1.905h.189c1.052 0 1.906.854 1.906 1.905v.095z"/><path d="m62.022 15.65-14.609-13.696c-1.313-1.23-3.514-1.23-4.826 0l-14.293 13.4c-1.784-2.625-4.793-4.354-8.198-4.354h-4.191c-5.462 0-9.905 4.443-9.905 9.904 0 .811.1 1.618.296 2.402l.562 2.247c-.529.679-.858 1.521-.858 2.447 0 2.206 1.794 4 4 4h.263c.524 2.026 1.821 3.74 3.561 4.81l-.622 2.309-3.33.556c-1.49.248-2.885.799-4.145 1.638-2.959 1.974-4.727 5.277-4.727 8.833v12.854h29 1 21c1.654 0 3-1.346 3-3v-12c0-1.654-1.346-3-3-3h-3v-1c0-1.13-.391-2.162-1.026-3h11.026v-20h.907c1.705 0 3.093-1.388 3.093-3.093 0-.852-.356-1.675-.978-2.257zm-31.929 5.35h.907v20h3.026c-.631.834-1.02 1.859-1.024 2.982-.744-1.04-1.657-1.954-2.73-2.669-1.259-.839-2.653-1.39-4.144-1.638l-3.33-.556-.622-2.309c1.739-1.071 3.036-2.784 3.561-4.81h.339c2.206 0 4-1.794 4-4 0-.958-.352-1.827-.916-2.516l.545-2.177c.189-.756.283-1.533.29-2.314.033.001.065.007.098.007zm-3.093 27v12c0 .352.072.686.184 1h-5.337l-1.807-10.843 1.449-2.897 2.115 1.269 1.976-6.918.22.037c1.209.202 2.342.649 3.363 1.329.82.547 1.522 1.24 2.107 2.023h-1.27c-1.654 0-3 1.346-3 3zm-4.657-6.929 1.251.209-1.197 4.192-2.784-1.67zm-4.343 4.095 1.768 1.061-1.386 2.773h-.764l-1.386-2.773zm-.153 5.834h.306l1.667 10h-3.64zm8.153-25h.075c1.103 0 2 .897 2 2s-.897 2-2 2h-.075zm-10.096-13h4.191c4.359 0 7.905 3.546 7.905 7.904 0 .646-.079 1.292-.235 1.916l-.357 1.425c-.419-.149-.863-.245-1.333-.245h-.198c-.325-1.164-1.319-2.049-2.578-2.175l-3.224-.323c-2.323-.232-4.075-2.167-4.075-4.502h-2c0 .924.19 1.804.535 2.602-1.967.79-3.53 2.396-4.266 4.398h-.269c-.495 0-.965.102-1.403.267l-.362-1.447c-.156-.624-.235-1.269-.235-1.916 0-4.358 3.546-7.904 7.904-7.904zm-7.904 15c0-1.103.897-2 2-2h.023l-.023 4c-1.103 0-2-.897-2-2zm4 2v-4.872c.491-1.798 1.877-3.231 3.634-3.799 1.054 1.19 2.542 1.993 4.242 2.163l3.225.323c.512.051.899.479.899.995v5.19c0 3.309-2.691 6-6 6s-6-2.691-6-6zm6 8c.811 0 1.593-.123 2.331-.349l.553 2.05-2.884 2.885-2.884-2.884.553-2.05c.738.225 1.52.348 2.331.348zm-4.343 3.071 2.73 2.73-2.784 1.67-1.197-4.192zm-6.821 1.906c1.022-.68 2.155-1.127 3.364-1.329l.22-.037 1.976 6.918 2.115-1.269 1.449 2.897-1.807 10.843h-5.153v-12h-2v6h-4v-4.854c0-2.886 1.435-5.567 3.836-7.169zm-3.836 14.023h4v4h-4zm50 3c0 .552-.448 1-1 1h-21-1c-.552 0-1-.448-1-1v-7.111c1.272 1.301 3.042 2.111 5 2.111h3v2h8v-2h3c1.958 0 3.728-.81 5-2.111zm-14-5v-2h4v2zm14-7c0 2.757-2.243 5-5 5h-3v-2h-8v2h-3c-2.757 0-5-2.243-5-5 0-.552.448-1 1-1h22c.552 0 1 .448 1 1zm-6-4v1h-12v-1c0-1.654 1.346-3 3-3h6c1.654 0 3 1.346 3 3zm12.907-25h-2.907v20h-13-6-5v-20h-2.907c-.099 0-.194-.018-.287-.043-.121-.606-.302-1.19-.529-1.751.026-.03.039-.069.068-.097l14.609-13.696c.568-.533 1.523-.533 2.092 0l14.609 13.696c.219.206.345.496.345.798 0 .603-.49 1.093-1.093 1.093z"/><path d="m21.789 31.658.105-.211-1.789-.895-.105.212c-.381.762-1.147 1.236-2 1.236s-1.619-.474-2-1.236l-.105-.211-1.789.895.105.211c.722 1.444 2.174 2.341 3.789 2.341s3.067-.897 3.789-2.342z"/><circle cx="21" cy="27" r="1"/><circle cx="15" cy="27" r="1"/></g></g></svg>