<svg id="Capa_1" enable-background="new 0 0 510 510" height="512" viewBox="0 0 510 510" width="512" xmlns="http://www.w3.org/2000/svg"><g><path d="m175.788 390c-1.131 4.522-10.118 40.475-11.25 45l28.356 15 32.106-15 10.667-20.5-10.667-24.5-24-11z" fill="#233e59"/><path d="m245.667 379-20.667 11v45l32.106 15 28.355-15c-1.132-4.526-10.119-40.476-11.25-45z" fill="#0f2836"/><path d="m120 435v75h105l26.667-37.5-26.667-37.5c-28.278 0-88.527 0-105 0z" fill="#355270"/><path d="m330 435c-28.278 0-88.527 0-105 0v75h105c0-20.194 0-63.236 0-75z" fill="#233e59"/><path d="m30 90-14 105 14 105 98 18 97-18 15-105-15-105-97.5-15z" fill="#f9f9f9"/><path d="m420 90-97.5-15-97.5 15v210l99.75 23 95.25-23 4.5-97z" fill="#e1def4"/><path d="m210 270h-150v-150h60l15 10 15-10h60z" fill="#ffdc80"/><g><path d="m120 120h30v60h-30z" fill="#ffc55a"/></g><g><path d="m240 270h120c0-10.492 0-19.508 0-30-14.518 0-105.387 0-120 0z" fill="#7284fa"/></g><g><path d="m240 210h60c0-10.492 0-19.508 0-30-7.26 0-52.693 0-60 0z" fill="#7284fa"/></g><path d="m30 300c0-11.664 0-198.336 0-210h195l5.654-15-5.654-15c-15.191 0-209.806 0-225 0v330h225l15-42.414-15-47.586c-10.822 0-184.178 0-195 0z" fill="#355270"/><path d="m450 60c-15.191 0-209.806 0-225 0v30h195v210c-10.822 0-184.178 0-195 0v90h225c0-94.198 0-225.626 0-330z" fill="#233e59"/><path d="m330 90c0 49.706 40.294 90 90 90l15-90-15-90c-49.706 0-90 40.295-90 90z" fill="#8ae379"/><path d="m420 0v180c49.705 0 90-40.294 90-90 0-49.705-40.295-90-90-90z" fill="#01cb7f"/><path d="m412.668 84.205-16.646-17.264-21.597 20.825 37.354 38.736 8.221-7.838 4.5-24.664-4.5-16.787z" fill="#f9f9f9"/><path d="m444.871 53.498-24.871 23.715v41.451l45.574-43.454z" fill="#e1def4"/></g></svg>