<svg height="512" viewBox="0 0 512 512" width="512" xmlns="http://www.w3.org/2000/svg"><g id="Flat"><path d="m432.494 104a64.041 64.041 0 0 0 -1.65-14.416l17.156-10.184-17.284-30.8-17.167 10.2a60.041 60.041 0 0 0 -24.265-14.43v-20.37h-34.568v20.369a60.041 60.041 0 0 0 -24.265 14.431l-17.167-10.2-17.284 30.8 17.156 10.188a63.8 63.8 0 0 0 0 28.832l-17.156 10.18 17.284 30.8 17.167-10.2a60.041 60.041 0 0 0 24.265 14.43v20.37h34.568v-20.369a60.041 60.041 0 0 0 24.265-14.43l17.167 10.199 17.284-30.8-17.156-10.188a64.041 64.041 0 0 0 1.65-14.412zm-60.494 26.667c-14.319 0-25.926-11.939-25.926-26.667s11.607-26.667 25.926-26.667 25.926 11.939 25.926 26.667-11.607 26.667-25.926 26.667z" fill="#86b63b"/><path d="m328 304v48.144l-28.631-80.27a48 48 0 0 0 -45.21-31.874h-182.159a48 48 0 0 0 -48 48v168h224v-160l26.225 78.674a60.438 60.438 0 0 0 57.337 41.326 60.438 60.438 0 0 0 60.438-60.438v-51.562z" fill="#dfdfdd"/><path d="m80 296h16v160h-16z" fill="#cececc"/><path d="m192 408-24 16-24-16 8-144-16-24h64l-16 24z" fill="#375e8d"/><path d="m48 416h16v16h-16z" fill="#cececc"/><path d="m352 328h16v16h-16z" fill="#cececc"/><path d="m208 240h-88v-168h120l32 80h-32v56a32 32 0 0 1 -32 32z" fill="#fdc8a2"/><path d="m200 128a16 16 0 1 1 16-16 16.019 16.019 0 0 1 -16 16z" fill="#375e8d"/><path d="m152 128h-12a20 20 0 0 1 -20-20v132h88a32 32 0 0 0 32-32v-56h-72z" fill="#375e8d"/><path d="m240 200h-14.111a36.742 36.742 0 0 1 -33.044-20.422l14.31-7.156a20.832 20.832 0 0 0 18.734 11.578h14.111z" fill="#fcb079"/><path d="m232 24h-72a40 40 0 0 0 -40 40v44a20 20 0 0 1 20-20h12l16-16h64a24 24 0 0 0 0-48z" fill="#375e8d"/><path d="m24 456h64v32h-64z" fill="#fdc8a2"/><path d="m88 456h160v32h-160z" fill="#375e8d"/><path d="m417.689 264h-89.689v40h64l31-12.4a14.31 14.31 0 0 0 9-13.287 14.311 14.311 0 0 0 -14.311-14.313z" fill="#fdc8a2"/><path d="m280 152h176v112h-176z" fill="#f99e0c"/><path d="m280 152h88v112h-88z" fill="#f9a91b"/><g fill="#ffb431"><path d="m336 200h-88l32-48h88z"/><path d="m400 200h88l-32-48h-88z"/></g></g></svg>